%TF.GenerationSoftware,KiCad,Pcbnew,8.0.7*%
%TF.CreationDate,2025-01-02T13:52:41-06:00*%
%TF.ProjectId,fuckball,6675636b-6261-46c6-9c2e-6b696361645f,rev?*%
%TF.SameCoordinates,Original*%
%TF.FileFunction,Drillmap*%
%TF.FilePolarity,Positive*%
%FSLAX45Y45*%
G04 Gerber Fmt 4.5, Leading zero omitted, Abs format (unit mm)*
G04 Created by KiCad (PCBNEW 8.0.7) date 2025-01-02 13:52:41*
%MOMM*%
%LPD*%
G01*
G04 APERTURE LIST*
%ADD10C,0.050000*%
%ADD11C,0.200000*%
%ADD12C,0.100000*%
%ADD13C,0.120000*%
G04 APERTURE END LIST*
D10*
X21500000Y-6900000D02*
X20800000Y-7600000D01*
X22350000Y-9150000D01*
X22350000Y-11350000D01*
X20750000Y-12950000D01*
X18450000Y-12950000D01*
X16050000Y-10550000D01*
X16050000Y-3700000D01*
X21500000Y-3700000D01*
X21500000Y-6900000D01*
D11*
D12*
X16876000Y-3892000D02*
X16976000Y-3992000D01*
X16976000Y-3892000D02*
X16876000Y-3992000D01*
X16876000Y-4146000D02*
X16976000Y-4246000D01*
X16976000Y-4146000D02*
X16876000Y-4246000D01*
X16876000Y-4400000D02*
X16976000Y-4500000D01*
X16976000Y-4400000D02*
X16876000Y-4500000D01*
X16876000Y-4654000D02*
X16976000Y-4754000D01*
X16976000Y-4654000D02*
X16876000Y-4754000D01*
X16876000Y-4908000D02*
X16976000Y-5008000D01*
X16976000Y-4908000D02*
X16876000Y-5008000D01*
X16876000Y-5162000D02*
X16976000Y-5262000D01*
X16976000Y-5162000D02*
X16876000Y-5262000D01*
X16876000Y-5416000D02*
X16976000Y-5516000D01*
X16976000Y-5416000D02*
X16876000Y-5516000D01*
X16876000Y-5670000D02*
X16976000Y-5770000D01*
X16976000Y-5670000D02*
X16876000Y-5770000D01*
X16876000Y-5924000D02*
X16976000Y-6024000D01*
X16976000Y-5924000D02*
X16876000Y-6024000D01*
X17130000Y-5924000D02*
X17230000Y-6024000D01*
X17230000Y-5924000D02*
X17130000Y-6024000D01*
X17384000Y-5924000D02*
X17484000Y-6024000D01*
X17484000Y-5924000D02*
X17384000Y-6024000D01*
X17638000Y-5924000D02*
X17738000Y-6024000D01*
X17738000Y-5924000D02*
X17638000Y-6024000D01*
X17892000Y-5924000D02*
X17992000Y-6024000D01*
X17992000Y-5924000D02*
X17892000Y-6024000D01*
X18146000Y-5924000D02*
X18246000Y-6024000D01*
X18246000Y-5924000D02*
X18146000Y-6024000D01*
X18400000Y-3892000D02*
X18500000Y-3992000D01*
X18500000Y-3892000D02*
X18400000Y-3992000D01*
X18400000Y-4146000D02*
X18500000Y-4246000D01*
X18500000Y-4146000D02*
X18400000Y-4246000D01*
X18400000Y-4400000D02*
X18500000Y-4500000D01*
X18500000Y-4400000D02*
X18400000Y-4500000D01*
X18400000Y-4654000D02*
X18500000Y-4754000D01*
X18500000Y-4654000D02*
X18400000Y-4754000D01*
X18400000Y-4908000D02*
X18500000Y-5008000D01*
X18500000Y-4908000D02*
X18400000Y-5008000D01*
X18400000Y-5162000D02*
X18500000Y-5262000D01*
X18500000Y-5162000D02*
X18400000Y-5262000D01*
X18400000Y-5416000D02*
X18500000Y-5516000D01*
X18500000Y-5416000D02*
X18400000Y-5516000D01*
X18400000Y-5670000D02*
X18500000Y-5770000D01*
X18500000Y-5670000D02*
X18400000Y-5770000D01*
X18400000Y-5924000D02*
X18500000Y-6024000D01*
X18500000Y-5924000D02*
X18400000Y-6024000D01*
D13*
X18510000Y-9424160D02*
G75*
G02*
X18390000Y-9424160I-60000J0D01*
G01*
X18390000Y-9424160D02*
G75*
G02*
X18510000Y-9424160I60000J0D01*
G01*
X18510000Y-9716106D02*
G75*
G02*
X18390000Y-9716106I-60000J0D01*
G01*
X18390000Y-9716106D02*
G75*
G02*
X18510000Y-9716106I60000J0D01*
G01*
X18510000Y-10008053D02*
G75*
G02*
X18390000Y-10008053I-60000J0D01*
G01*
X18390000Y-10008053D02*
G75*
G02*
X18510000Y-10008053I60000J0D01*
G01*
X18510000Y-10300000D02*
G75*
G02*
X18390000Y-10300000I-60000J0D01*
G01*
X18390000Y-10300000D02*
G75*
G02*
X18510000Y-10300000I60000J0D01*
G01*
X18510000Y-10591947D02*
G75*
G02*
X18390000Y-10591947I-60000J0D01*
G01*
X18390000Y-10591947D02*
G75*
G02*
X18510000Y-10591947I60000J0D01*
G01*
X18510000Y-10883894D02*
G75*
G02*
X18390000Y-10883894I-60000J0D01*
G01*
X18390000Y-10883894D02*
G75*
G02*
X18510000Y-10883894I60000J0D01*
G01*
X20760000Y-10000000D02*
G75*
G02*
X20640000Y-10000000I-60000J0D01*
G01*
X20640000Y-10000000D02*
G75*
G02*
X20760000Y-10000000I60000J0D01*
G01*
X20760000Y-10250000D02*
G75*
G02*
X20640000Y-10250000I-60000J0D01*
G01*
X20640000Y-10250000D02*
G75*
G02*
X20760000Y-10250000I60000J0D01*
G01*
X21010000Y-10000000D02*
G75*
G02*
X20890000Y-10000000I-60000J0D01*
G01*
X20890000Y-10000000D02*
G75*
G02*
X21010000Y-10000000I60000J0D01*
G01*
X21010000Y-10250000D02*
G75*
G02*
X20890000Y-10250000I-60000J0D01*
G01*
X20890000Y-10250000D02*
G75*
G02*
X21010000Y-10250000I60000J0D01*
G01*
D11*
X16308277Y-13263984D02*
X16308277Y-13063984D01*
X16308277Y-13063984D02*
X16355896Y-13063984D01*
X16355896Y-13063984D02*
X16384467Y-13073508D01*
X16384467Y-13073508D02*
X16403515Y-13092555D01*
X16403515Y-13092555D02*
X16413039Y-13111603D01*
X16413039Y-13111603D02*
X16422562Y-13149698D01*
X16422562Y-13149698D02*
X16422562Y-13178269D01*
X16422562Y-13178269D02*
X16413039Y-13216365D01*
X16413039Y-13216365D02*
X16403515Y-13235412D01*
X16403515Y-13235412D02*
X16384467Y-13254460D01*
X16384467Y-13254460D02*
X16355896Y-13263984D01*
X16355896Y-13263984D02*
X16308277Y-13263984D01*
X16508277Y-13263984D02*
X16508277Y-13130650D01*
X16508277Y-13168746D02*
X16517801Y-13149698D01*
X16517801Y-13149698D02*
X16527324Y-13140174D01*
X16527324Y-13140174D02*
X16546372Y-13130650D01*
X16546372Y-13130650D02*
X16565420Y-13130650D01*
X16632086Y-13263984D02*
X16632086Y-13130650D01*
X16632086Y-13063984D02*
X16622562Y-13073508D01*
X16622562Y-13073508D02*
X16632086Y-13083031D01*
X16632086Y-13083031D02*
X16641610Y-13073508D01*
X16641610Y-13073508D02*
X16632086Y-13063984D01*
X16632086Y-13063984D02*
X16632086Y-13083031D01*
X16755896Y-13263984D02*
X16736848Y-13254460D01*
X16736848Y-13254460D02*
X16727324Y-13235412D01*
X16727324Y-13235412D02*
X16727324Y-13063984D01*
X16860658Y-13263984D02*
X16841610Y-13254460D01*
X16841610Y-13254460D02*
X16832086Y-13235412D01*
X16832086Y-13235412D02*
X16832086Y-13063984D01*
X17089229Y-13263984D02*
X17089229Y-13063984D01*
X17089229Y-13063984D02*
X17155896Y-13206841D01*
X17155896Y-13206841D02*
X17222563Y-13063984D01*
X17222563Y-13063984D02*
X17222563Y-13263984D01*
X17403515Y-13263984D02*
X17403515Y-13159222D01*
X17403515Y-13159222D02*
X17393991Y-13140174D01*
X17393991Y-13140174D02*
X17374944Y-13130650D01*
X17374944Y-13130650D02*
X17336848Y-13130650D01*
X17336848Y-13130650D02*
X17317801Y-13140174D01*
X17403515Y-13254460D02*
X17384467Y-13263984D01*
X17384467Y-13263984D02*
X17336848Y-13263984D01*
X17336848Y-13263984D02*
X17317801Y-13254460D01*
X17317801Y-13254460D02*
X17308277Y-13235412D01*
X17308277Y-13235412D02*
X17308277Y-13216365D01*
X17308277Y-13216365D02*
X17317801Y-13197317D01*
X17317801Y-13197317D02*
X17336848Y-13187793D01*
X17336848Y-13187793D02*
X17384467Y-13187793D01*
X17384467Y-13187793D02*
X17403515Y-13178269D01*
X17498753Y-13130650D02*
X17498753Y-13330650D01*
X17498753Y-13140174D02*
X17517801Y-13130650D01*
X17517801Y-13130650D02*
X17555896Y-13130650D01*
X17555896Y-13130650D02*
X17574944Y-13140174D01*
X17574944Y-13140174D02*
X17584467Y-13149698D01*
X17584467Y-13149698D02*
X17593991Y-13168746D01*
X17593991Y-13168746D02*
X17593991Y-13225888D01*
X17593991Y-13225888D02*
X17584467Y-13244936D01*
X17584467Y-13244936D02*
X17574944Y-13254460D01*
X17574944Y-13254460D02*
X17555896Y-13263984D01*
X17555896Y-13263984D02*
X17517801Y-13263984D01*
X17517801Y-13263984D02*
X17498753Y-13254460D01*
X17679705Y-13244936D02*
X17689229Y-13254460D01*
X17689229Y-13254460D02*
X17679705Y-13263984D01*
X17679705Y-13263984D02*
X17670182Y-13254460D01*
X17670182Y-13254460D02*
X17679705Y-13244936D01*
X17679705Y-13244936D02*
X17679705Y-13263984D01*
X17679705Y-13140174D02*
X17689229Y-13149698D01*
X17689229Y-13149698D02*
X17679705Y-13159222D01*
X17679705Y-13159222D02*
X17670182Y-13149698D01*
X17670182Y-13149698D02*
X17679705Y-13140174D01*
X17679705Y-13140174D02*
X17679705Y-13159222D01*
D12*
X15947500Y-13542500D02*
X16047500Y-13642500D01*
X16047500Y-13542500D02*
X15947500Y-13642500D01*
D11*
X16413039Y-13683984D02*
X16298753Y-13683984D01*
X16355896Y-13683984D02*
X16355896Y-13483984D01*
X16355896Y-13483984D02*
X16336848Y-13512555D01*
X16336848Y-13512555D02*
X16317801Y-13531603D01*
X16317801Y-13531603D02*
X16298753Y-13541127D01*
X16498753Y-13664936D02*
X16508277Y-13674460D01*
X16508277Y-13674460D02*
X16498753Y-13683984D01*
X16498753Y-13683984D02*
X16489229Y-13674460D01*
X16489229Y-13674460D02*
X16498753Y-13664936D01*
X16498753Y-13664936D02*
X16498753Y-13683984D01*
X16632086Y-13483984D02*
X16651134Y-13483984D01*
X16651134Y-13483984D02*
X16670182Y-13493508D01*
X16670182Y-13493508D02*
X16679705Y-13503031D01*
X16679705Y-13503031D02*
X16689229Y-13522079D01*
X16689229Y-13522079D02*
X16698753Y-13560174D01*
X16698753Y-13560174D02*
X16698753Y-13607793D01*
X16698753Y-13607793D02*
X16689229Y-13645888D01*
X16689229Y-13645888D02*
X16679705Y-13664936D01*
X16679705Y-13664936D02*
X16670182Y-13674460D01*
X16670182Y-13674460D02*
X16651134Y-13683984D01*
X16651134Y-13683984D02*
X16632086Y-13683984D01*
X16632086Y-13683984D02*
X16613039Y-13674460D01*
X16613039Y-13674460D02*
X16603515Y-13664936D01*
X16603515Y-13664936D02*
X16593991Y-13645888D01*
X16593991Y-13645888D02*
X16584467Y-13607793D01*
X16584467Y-13607793D02*
X16584467Y-13560174D01*
X16584467Y-13560174D02*
X16593991Y-13522079D01*
X16593991Y-13522079D02*
X16603515Y-13503031D01*
X16603515Y-13503031D02*
X16613039Y-13493508D01*
X16613039Y-13493508D02*
X16632086Y-13483984D01*
X16822563Y-13483984D02*
X16841610Y-13483984D01*
X16841610Y-13483984D02*
X16860658Y-13493508D01*
X16860658Y-13493508D02*
X16870182Y-13503031D01*
X16870182Y-13503031D02*
X16879705Y-13522079D01*
X16879705Y-13522079D02*
X16889229Y-13560174D01*
X16889229Y-13560174D02*
X16889229Y-13607793D01*
X16889229Y-13607793D02*
X16879705Y-13645888D01*
X16879705Y-13645888D02*
X16870182Y-13664936D01*
X16870182Y-13664936D02*
X16860658Y-13674460D01*
X16860658Y-13674460D02*
X16841610Y-13683984D01*
X16841610Y-13683984D02*
X16822563Y-13683984D01*
X16822563Y-13683984D02*
X16803515Y-13674460D01*
X16803515Y-13674460D02*
X16793991Y-13664936D01*
X16793991Y-13664936D02*
X16784467Y-13645888D01*
X16784467Y-13645888D02*
X16774943Y-13607793D01*
X16774943Y-13607793D02*
X16774943Y-13560174D01*
X16774943Y-13560174D02*
X16784467Y-13522079D01*
X16784467Y-13522079D02*
X16793991Y-13503031D01*
X16793991Y-13503031D02*
X16803515Y-13493508D01*
X16803515Y-13493508D02*
X16822563Y-13483984D01*
X17013039Y-13483984D02*
X17032086Y-13483984D01*
X17032086Y-13483984D02*
X17051134Y-13493508D01*
X17051134Y-13493508D02*
X17060658Y-13503031D01*
X17060658Y-13503031D02*
X17070182Y-13522079D01*
X17070182Y-13522079D02*
X17079705Y-13560174D01*
X17079705Y-13560174D02*
X17079705Y-13607793D01*
X17079705Y-13607793D02*
X17070182Y-13645888D01*
X17070182Y-13645888D02*
X17060658Y-13664936D01*
X17060658Y-13664936D02*
X17051134Y-13674460D01*
X17051134Y-13674460D02*
X17032086Y-13683984D01*
X17032086Y-13683984D02*
X17013039Y-13683984D01*
X17013039Y-13683984D02*
X16993991Y-13674460D01*
X16993991Y-13674460D02*
X16984467Y-13664936D01*
X16984467Y-13664936D02*
X16974944Y-13645888D01*
X16974944Y-13645888D02*
X16965420Y-13607793D01*
X16965420Y-13607793D02*
X16965420Y-13560174D01*
X16965420Y-13560174D02*
X16974944Y-13522079D01*
X16974944Y-13522079D02*
X16984467Y-13503031D01*
X16984467Y-13503031D02*
X16993991Y-13493508D01*
X16993991Y-13493508D02*
X17013039Y-13483984D01*
X17165420Y-13683984D02*
X17165420Y-13550650D01*
X17165420Y-13569698D02*
X17174944Y-13560174D01*
X17174944Y-13560174D02*
X17193991Y-13550650D01*
X17193991Y-13550650D02*
X17222563Y-13550650D01*
X17222563Y-13550650D02*
X17241610Y-13560174D01*
X17241610Y-13560174D02*
X17251134Y-13579222D01*
X17251134Y-13579222D02*
X17251134Y-13683984D01*
X17251134Y-13579222D02*
X17260658Y-13560174D01*
X17260658Y-13560174D02*
X17279705Y-13550650D01*
X17279705Y-13550650D02*
X17308277Y-13550650D01*
X17308277Y-13550650D02*
X17327325Y-13560174D01*
X17327325Y-13560174D02*
X17336848Y-13579222D01*
X17336848Y-13579222D02*
X17336848Y-13683984D01*
X17432086Y-13683984D02*
X17432086Y-13550650D01*
X17432086Y-13569698D02*
X17441610Y-13560174D01*
X17441610Y-13560174D02*
X17460658Y-13550650D01*
X17460658Y-13550650D02*
X17489229Y-13550650D01*
X17489229Y-13550650D02*
X17508277Y-13560174D01*
X17508277Y-13560174D02*
X17517801Y-13579222D01*
X17517801Y-13579222D02*
X17517801Y-13683984D01*
X17517801Y-13579222D02*
X17527325Y-13560174D01*
X17527325Y-13560174D02*
X17546372Y-13550650D01*
X17546372Y-13550650D02*
X17574944Y-13550650D01*
X17574944Y-13550650D02*
X17593991Y-13560174D01*
X17593991Y-13560174D02*
X17603515Y-13579222D01*
X17603515Y-13579222D02*
X17603515Y-13683984D01*
X17993991Y-13474460D02*
X17822563Y-13731603D01*
X18251134Y-13483984D02*
X18270182Y-13483984D01*
X18270182Y-13483984D02*
X18289229Y-13493508D01*
X18289229Y-13493508D02*
X18298753Y-13503031D01*
X18298753Y-13503031D02*
X18308277Y-13522079D01*
X18308277Y-13522079D02*
X18317801Y-13560174D01*
X18317801Y-13560174D02*
X18317801Y-13607793D01*
X18317801Y-13607793D02*
X18308277Y-13645888D01*
X18308277Y-13645888D02*
X18298753Y-13664936D01*
X18298753Y-13664936D02*
X18289229Y-13674460D01*
X18289229Y-13674460D02*
X18270182Y-13683984D01*
X18270182Y-13683984D02*
X18251134Y-13683984D01*
X18251134Y-13683984D02*
X18232087Y-13674460D01*
X18232087Y-13674460D02*
X18222563Y-13664936D01*
X18222563Y-13664936D02*
X18213039Y-13645888D01*
X18213039Y-13645888D02*
X18203515Y-13607793D01*
X18203515Y-13607793D02*
X18203515Y-13560174D01*
X18203515Y-13560174D02*
X18213039Y-13522079D01*
X18213039Y-13522079D02*
X18222563Y-13503031D01*
X18222563Y-13503031D02*
X18232087Y-13493508D01*
X18232087Y-13493508D02*
X18251134Y-13483984D01*
X18403515Y-13664936D02*
X18413039Y-13674460D01*
X18413039Y-13674460D02*
X18403515Y-13683984D01*
X18403515Y-13683984D02*
X18393991Y-13674460D01*
X18393991Y-13674460D02*
X18403515Y-13664936D01*
X18403515Y-13664936D02*
X18403515Y-13683984D01*
X18536848Y-13483984D02*
X18555896Y-13483984D01*
X18555896Y-13483984D02*
X18574944Y-13493508D01*
X18574944Y-13493508D02*
X18584468Y-13503031D01*
X18584468Y-13503031D02*
X18593991Y-13522079D01*
X18593991Y-13522079D02*
X18603515Y-13560174D01*
X18603515Y-13560174D02*
X18603515Y-13607793D01*
X18603515Y-13607793D02*
X18593991Y-13645888D01*
X18593991Y-13645888D02*
X18584468Y-13664936D01*
X18584468Y-13664936D02*
X18574944Y-13674460D01*
X18574944Y-13674460D02*
X18555896Y-13683984D01*
X18555896Y-13683984D02*
X18536848Y-13683984D01*
X18536848Y-13683984D02*
X18517801Y-13674460D01*
X18517801Y-13674460D02*
X18508277Y-13664936D01*
X18508277Y-13664936D02*
X18498753Y-13645888D01*
X18498753Y-13645888D02*
X18489229Y-13607793D01*
X18489229Y-13607793D02*
X18489229Y-13560174D01*
X18489229Y-13560174D02*
X18498753Y-13522079D01*
X18498753Y-13522079D02*
X18508277Y-13503031D01*
X18508277Y-13503031D02*
X18517801Y-13493508D01*
X18517801Y-13493508D02*
X18536848Y-13483984D01*
X18670182Y-13483984D02*
X18793991Y-13483984D01*
X18793991Y-13483984D02*
X18727325Y-13560174D01*
X18727325Y-13560174D02*
X18755896Y-13560174D01*
X18755896Y-13560174D02*
X18774944Y-13569698D01*
X18774944Y-13569698D02*
X18784468Y-13579222D01*
X18784468Y-13579222D02*
X18793991Y-13598269D01*
X18793991Y-13598269D02*
X18793991Y-13645888D01*
X18793991Y-13645888D02*
X18784468Y-13664936D01*
X18784468Y-13664936D02*
X18774944Y-13674460D01*
X18774944Y-13674460D02*
X18755896Y-13683984D01*
X18755896Y-13683984D02*
X18698753Y-13683984D01*
X18698753Y-13683984D02*
X18679706Y-13674460D01*
X18679706Y-13674460D02*
X18670182Y-13664936D01*
X18889229Y-13683984D02*
X18927325Y-13683984D01*
X18927325Y-13683984D02*
X18946372Y-13674460D01*
X18946372Y-13674460D02*
X18955896Y-13664936D01*
X18955896Y-13664936D02*
X18974944Y-13636365D01*
X18974944Y-13636365D02*
X18984468Y-13598269D01*
X18984468Y-13598269D02*
X18984468Y-13522079D01*
X18984468Y-13522079D02*
X18974944Y-13503031D01*
X18974944Y-13503031D02*
X18965420Y-13493508D01*
X18965420Y-13493508D02*
X18946372Y-13483984D01*
X18946372Y-13483984D02*
X18908277Y-13483984D01*
X18908277Y-13483984D02*
X18889229Y-13493508D01*
X18889229Y-13493508D02*
X18879706Y-13503031D01*
X18879706Y-13503031D02*
X18870182Y-13522079D01*
X18870182Y-13522079D02*
X18870182Y-13569698D01*
X18870182Y-13569698D02*
X18879706Y-13588746D01*
X18879706Y-13588746D02*
X18889229Y-13598269D01*
X18889229Y-13598269D02*
X18908277Y-13607793D01*
X18908277Y-13607793D02*
X18946372Y-13607793D01*
X18946372Y-13607793D02*
X18965420Y-13598269D01*
X18965420Y-13598269D02*
X18974944Y-13588746D01*
X18974944Y-13588746D02*
X18984468Y-13569698D01*
X19155896Y-13550650D02*
X19155896Y-13683984D01*
X19108277Y-13474460D02*
X19060658Y-13617317D01*
X19060658Y-13617317D02*
X19184468Y-13617317D01*
X19251134Y-13483984D02*
X19251134Y-13522079D01*
X19327325Y-13483984D02*
X19327325Y-13522079D01*
X19622563Y-13760174D02*
X19613039Y-13750650D01*
X19613039Y-13750650D02*
X19593991Y-13722079D01*
X19593991Y-13722079D02*
X19584468Y-13703031D01*
X19584468Y-13703031D02*
X19574944Y-13674460D01*
X19574944Y-13674460D02*
X19565420Y-13626841D01*
X19565420Y-13626841D02*
X19565420Y-13588746D01*
X19565420Y-13588746D02*
X19574944Y-13541127D01*
X19574944Y-13541127D02*
X19584468Y-13512555D01*
X19584468Y-13512555D02*
X19593991Y-13493508D01*
X19593991Y-13493508D02*
X19613039Y-13464936D01*
X19613039Y-13464936D02*
X19622563Y-13455412D01*
X19689230Y-13503031D02*
X19698753Y-13493508D01*
X19698753Y-13493508D02*
X19717801Y-13483984D01*
X19717801Y-13483984D02*
X19765420Y-13483984D01*
X19765420Y-13483984D02*
X19784468Y-13493508D01*
X19784468Y-13493508D02*
X19793991Y-13503031D01*
X19793991Y-13503031D02*
X19803515Y-13522079D01*
X19803515Y-13522079D02*
X19803515Y-13541127D01*
X19803515Y-13541127D02*
X19793991Y-13569698D01*
X19793991Y-13569698D02*
X19679706Y-13683984D01*
X19679706Y-13683984D02*
X19803515Y-13683984D01*
X19870182Y-13483984D02*
X19993991Y-13483984D01*
X19993991Y-13483984D02*
X19927325Y-13560174D01*
X19927325Y-13560174D02*
X19955896Y-13560174D01*
X19955896Y-13560174D02*
X19974944Y-13569698D01*
X19974944Y-13569698D02*
X19984468Y-13579222D01*
X19984468Y-13579222D02*
X19993991Y-13598269D01*
X19993991Y-13598269D02*
X19993991Y-13645888D01*
X19993991Y-13645888D02*
X19984468Y-13664936D01*
X19984468Y-13664936D02*
X19974944Y-13674460D01*
X19974944Y-13674460D02*
X19955896Y-13683984D01*
X19955896Y-13683984D02*
X19898753Y-13683984D01*
X19898753Y-13683984D02*
X19879706Y-13674460D01*
X19879706Y-13674460D02*
X19870182Y-13664936D01*
X20232087Y-13683984D02*
X20232087Y-13483984D01*
X20317801Y-13683984D02*
X20317801Y-13579222D01*
X20317801Y-13579222D02*
X20308277Y-13560174D01*
X20308277Y-13560174D02*
X20289230Y-13550650D01*
X20289230Y-13550650D02*
X20260658Y-13550650D01*
X20260658Y-13550650D02*
X20241611Y-13560174D01*
X20241611Y-13560174D02*
X20232087Y-13569698D01*
X20441611Y-13683984D02*
X20422563Y-13674460D01*
X20422563Y-13674460D02*
X20413039Y-13664936D01*
X20413039Y-13664936D02*
X20403515Y-13645888D01*
X20403515Y-13645888D02*
X20403515Y-13588746D01*
X20403515Y-13588746D02*
X20413039Y-13569698D01*
X20413039Y-13569698D02*
X20422563Y-13560174D01*
X20422563Y-13560174D02*
X20441611Y-13550650D01*
X20441611Y-13550650D02*
X20470182Y-13550650D01*
X20470182Y-13550650D02*
X20489230Y-13560174D01*
X20489230Y-13560174D02*
X20498753Y-13569698D01*
X20498753Y-13569698D02*
X20508277Y-13588746D01*
X20508277Y-13588746D02*
X20508277Y-13645888D01*
X20508277Y-13645888D02*
X20498753Y-13664936D01*
X20498753Y-13664936D02*
X20489230Y-13674460D01*
X20489230Y-13674460D02*
X20470182Y-13683984D01*
X20470182Y-13683984D02*
X20441611Y-13683984D01*
X20622563Y-13683984D02*
X20603515Y-13674460D01*
X20603515Y-13674460D02*
X20593992Y-13655412D01*
X20593992Y-13655412D02*
X20593992Y-13483984D01*
X20774944Y-13674460D02*
X20755896Y-13683984D01*
X20755896Y-13683984D02*
X20717801Y-13683984D01*
X20717801Y-13683984D02*
X20698753Y-13674460D01*
X20698753Y-13674460D02*
X20689230Y-13655412D01*
X20689230Y-13655412D02*
X20689230Y-13579222D01*
X20689230Y-13579222D02*
X20698753Y-13560174D01*
X20698753Y-13560174D02*
X20717801Y-13550650D01*
X20717801Y-13550650D02*
X20755896Y-13550650D01*
X20755896Y-13550650D02*
X20774944Y-13560174D01*
X20774944Y-13560174D02*
X20784468Y-13579222D01*
X20784468Y-13579222D02*
X20784468Y-13598269D01*
X20784468Y-13598269D02*
X20689230Y-13617317D01*
X20860658Y-13674460D02*
X20879706Y-13683984D01*
X20879706Y-13683984D02*
X20917801Y-13683984D01*
X20917801Y-13683984D02*
X20936849Y-13674460D01*
X20936849Y-13674460D02*
X20946373Y-13655412D01*
X20946373Y-13655412D02*
X20946373Y-13645888D01*
X20946373Y-13645888D02*
X20936849Y-13626841D01*
X20936849Y-13626841D02*
X20917801Y-13617317D01*
X20917801Y-13617317D02*
X20889230Y-13617317D01*
X20889230Y-13617317D02*
X20870182Y-13607793D01*
X20870182Y-13607793D02*
X20860658Y-13588746D01*
X20860658Y-13588746D02*
X20860658Y-13579222D01*
X20860658Y-13579222D02*
X20870182Y-13560174D01*
X20870182Y-13560174D02*
X20889230Y-13550650D01*
X20889230Y-13550650D02*
X20917801Y-13550650D01*
X20917801Y-13550650D02*
X20936849Y-13560174D01*
X21013039Y-13760174D02*
X21022563Y-13750650D01*
X21022563Y-13750650D02*
X21041611Y-13722079D01*
X21041611Y-13722079D02*
X21051134Y-13703031D01*
X21051134Y-13703031D02*
X21060658Y-13674460D01*
X21060658Y-13674460D02*
X21070182Y-13626841D01*
X21070182Y-13626841D02*
X21070182Y-13588746D01*
X21070182Y-13588746D02*
X21060658Y-13541127D01*
X21060658Y-13541127D02*
X21051134Y-13512555D01*
X21051134Y-13512555D02*
X21041611Y-13493508D01*
X21041611Y-13493508D02*
X21022563Y-13464936D01*
X21022563Y-13464936D02*
X21013039Y-13455412D01*
D13*
X16047500Y-13856500D02*
G75*
G02*
X15927500Y-13856500I-60000J0D01*
G01*
X15927500Y-13856500D02*
G75*
G02*
X16047500Y-13856500I60000J0D01*
G01*
D11*
X16413039Y-13947984D02*
X16298753Y-13947984D01*
X16355896Y-13947984D02*
X16355896Y-13747984D01*
X16355896Y-13747984D02*
X16336848Y-13776555D01*
X16336848Y-13776555D02*
X16317801Y-13795603D01*
X16317801Y-13795603D02*
X16298753Y-13805127D01*
X16498753Y-13928936D02*
X16508277Y-13938460D01*
X16508277Y-13938460D02*
X16498753Y-13947984D01*
X16498753Y-13947984D02*
X16489229Y-13938460D01*
X16489229Y-13938460D02*
X16498753Y-13928936D01*
X16498753Y-13928936D02*
X16498753Y-13947984D01*
X16584467Y-13767031D02*
X16593991Y-13757508D01*
X16593991Y-13757508D02*
X16613039Y-13747984D01*
X16613039Y-13747984D02*
X16660658Y-13747984D01*
X16660658Y-13747984D02*
X16679705Y-13757508D01*
X16679705Y-13757508D02*
X16689229Y-13767031D01*
X16689229Y-13767031D02*
X16698753Y-13786079D01*
X16698753Y-13786079D02*
X16698753Y-13805127D01*
X16698753Y-13805127D02*
X16689229Y-13833698D01*
X16689229Y-13833698D02*
X16574943Y-13947984D01*
X16574943Y-13947984D02*
X16698753Y-13947984D01*
X16822563Y-13747984D02*
X16841610Y-13747984D01*
X16841610Y-13747984D02*
X16860658Y-13757508D01*
X16860658Y-13757508D02*
X16870182Y-13767031D01*
X16870182Y-13767031D02*
X16879705Y-13786079D01*
X16879705Y-13786079D02*
X16889229Y-13824174D01*
X16889229Y-13824174D02*
X16889229Y-13871793D01*
X16889229Y-13871793D02*
X16879705Y-13909888D01*
X16879705Y-13909888D02*
X16870182Y-13928936D01*
X16870182Y-13928936D02*
X16860658Y-13938460D01*
X16860658Y-13938460D02*
X16841610Y-13947984D01*
X16841610Y-13947984D02*
X16822563Y-13947984D01*
X16822563Y-13947984D02*
X16803515Y-13938460D01*
X16803515Y-13938460D02*
X16793991Y-13928936D01*
X16793991Y-13928936D02*
X16784467Y-13909888D01*
X16784467Y-13909888D02*
X16774943Y-13871793D01*
X16774943Y-13871793D02*
X16774943Y-13824174D01*
X16774943Y-13824174D02*
X16784467Y-13786079D01*
X16784467Y-13786079D02*
X16793991Y-13767031D01*
X16793991Y-13767031D02*
X16803515Y-13757508D01*
X16803515Y-13757508D02*
X16822563Y-13747984D01*
X17013039Y-13747984D02*
X17032086Y-13747984D01*
X17032086Y-13747984D02*
X17051134Y-13757508D01*
X17051134Y-13757508D02*
X17060658Y-13767031D01*
X17060658Y-13767031D02*
X17070182Y-13786079D01*
X17070182Y-13786079D02*
X17079705Y-13824174D01*
X17079705Y-13824174D02*
X17079705Y-13871793D01*
X17079705Y-13871793D02*
X17070182Y-13909888D01*
X17070182Y-13909888D02*
X17060658Y-13928936D01*
X17060658Y-13928936D02*
X17051134Y-13938460D01*
X17051134Y-13938460D02*
X17032086Y-13947984D01*
X17032086Y-13947984D02*
X17013039Y-13947984D01*
X17013039Y-13947984D02*
X16993991Y-13938460D01*
X16993991Y-13938460D02*
X16984467Y-13928936D01*
X16984467Y-13928936D02*
X16974944Y-13909888D01*
X16974944Y-13909888D02*
X16965420Y-13871793D01*
X16965420Y-13871793D02*
X16965420Y-13824174D01*
X16965420Y-13824174D02*
X16974944Y-13786079D01*
X16974944Y-13786079D02*
X16984467Y-13767031D01*
X16984467Y-13767031D02*
X16993991Y-13757508D01*
X16993991Y-13757508D02*
X17013039Y-13747984D01*
X17165420Y-13947984D02*
X17165420Y-13814650D01*
X17165420Y-13833698D02*
X17174944Y-13824174D01*
X17174944Y-13824174D02*
X17193991Y-13814650D01*
X17193991Y-13814650D02*
X17222563Y-13814650D01*
X17222563Y-13814650D02*
X17241610Y-13824174D01*
X17241610Y-13824174D02*
X17251134Y-13843222D01*
X17251134Y-13843222D02*
X17251134Y-13947984D01*
X17251134Y-13843222D02*
X17260658Y-13824174D01*
X17260658Y-13824174D02*
X17279705Y-13814650D01*
X17279705Y-13814650D02*
X17308277Y-13814650D01*
X17308277Y-13814650D02*
X17327325Y-13824174D01*
X17327325Y-13824174D02*
X17336848Y-13843222D01*
X17336848Y-13843222D02*
X17336848Y-13947984D01*
X17432086Y-13947984D02*
X17432086Y-13814650D01*
X17432086Y-13833698D02*
X17441610Y-13824174D01*
X17441610Y-13824174D02*
X17460658Y-13814650D01*
X17460658Y-13814650D02*
X17489229Y-13814650D01*
X17489229Y-13814650D02*
X17508277Y-13824174D01*
X17508277Y-13824174D02*
X17517801Y-13843222D01*
X17517801Y-13843222D02*
X17517801Y-13947984D01*
X17517801Y-13843222D02*
X17527325Y-13824174D01*
X17527325Y-13824174D02*
X17546372Y-13814650D01*
X17546372Y-13814650D02*
X17574944Y-13814650D01*
X17574944Y-13814650D02*
X17593991Y-13824174D01*
X17593991Y-13824174D02*
X17603515Y-13843222D01*
X17603515Y-13843222D02*
X17603515Y-13947984D01*
X17993991Y-13738460D02*
X17822563Y-13995603D01*
X18251134Y-13747984D02*
X18270182Y-13747984D01*
X18270182Y-13747984D02*
X18289229Y-13757508D01*
X18289229Y-13757508D02*
X18298753Y-13767031D01*
X18298753Y-13767031D02*
X18308277Y-13786079D01*
X18308277Y-13786079D02*
X18317801Y-13824174D01*
X18317801Y-13824174D02*
X18317801Y-13871793D01*
X18317801Y-13871793D02*
X18308277Y-13909888D01*
X18308277Y-13909888D02*
X18298753Y-13928936D01*
X18298753Y-13928936D02*
X18289229Y-13938460D01*
X18289229Y-13938460D02*
X18270182Y-13947984D01*
X18270182Y-13947984D02*
X18251134Y-13947984D01*
X18251134Y-13947984D02*
X18232087Y-13938460D01*
X18232087Y-13938460D02*
X18222563Y-13928936D01*
X18222563Y-13928936D02*
X18213039Y-13909888D01*
X18213039Y-13909888D02*
X18203515Y-13871793D01*
X18203515Y-13871793D02*
X18203515Y-13824174D01*
X18203515Y-13824174D02*
X18213039Y-13786079D01*
X18213039Y-13786079D02*
X18222563Y-13767031D01*
X18222563Y-13767031D02*
X18232087Y-13757508D01*
X18232087Y-13757508D02*
X18251134Y-13747984D01*
X18403515Y-13928936D02*
X18413039Y-13938460D01*
X18413039Y-13938460D02*
X18403515Y-13947984D01*
X18403515Y-13947984D02*
X18393991Y-13938460D01*
X18393991Y-13938460D02*
X18403515Y-13928936D01*
X18403515Y-13928936D02*
X18403515Y-13947984D01*
X18536848Y-13747984D02*
X18555896Y-13747984D01*
X18555896Y-13747984D02*
X18574944Y-13757508D01*
X18574944Y-13757508D02*
X18584468Y-13767031D01*
X18584468Y-13767031D02*
X18593991Y-13786079D01*
X18593991Y-13786079D02*
X18603515Y-13824174D01*
X18603515Y-13824174D02*
X18603515Y-13871793D01*
X18603515Y-13871793D02*
X18593991Y-13909888D01*
X18593991Y-13909888D02*
X18584468Y-13928936D01*
X18584468Y-13928936D02*
X18574944Y-13938460D01*
X18574944Y-13938460D02*
X18555896Y-13947984D01*
X18555896Y-13947984D02*
X18536848Y-13947984D01*
X18536848Y-13947984D02*
X18517801Y-13938460D01*
X18517801Y-13938460D02*
X18508277Y-13928936D01*
X18508277Y-13928936D02*
X18498753Y-13909888D01*
X18498753Y-13909888D02*
X18489229Y-13871793D01*
X18489229Y-13871793D02*
X18489229Y-13824174D01*
X18489229Y-13824174D02*
X18498753Y-13786079D01*
X18498753Y-13786079D02*
X18508277Y-13767031D01*
X18508277Y-13767031D02*
X18517801Y-13757508D01*
X18517801Y-13757508D02*
X18536848Y-13747984D01*
X18774944Y-13814650D02*
X18774944Y-13947984D01*
X18727325Y-13738460D02*
X18679706Y-13881317D01*
X18679706Y-13881317D02*
X18803515Y-13881317D01*
X18860658Y-13747984D02*
X18993991Y-13747984D01*
X18993991Y-13747984D02*
X18908277Y-13947984D01*
X19060658Y-13767031D02*
X19070182Y-13757508D01*
X19070182Y-13757508D02*
X19089229Y-13747984D01*
X19089229Y-13747984D02*
X19136849Y-13747984D01*
X19136849Y-13747984D02*
X19155896Y-13757508D01*
X19155896Y-13757508D02*
X19165420Y-13767031D01*
X19165420Y-13767031D02*
X19174944Y-13786079D01*
X19174944Y-13786079D02*
X19174944Y-13805127D01*
X19174944Y-13805127D02*
X19165420Y-13833698D01*
X19165420Y-13833698D02*
X19051134Y-13947984D01*
X19051134Y-13947984D02*
X19174944Y-13947984D01*
X19251134Y-13747984D02*
X19251134Y-13786079D01*
X19327325Y-13747984D02*
X19327325Y-13786079D01*
X19622563Y-14024174D02*
X19613039Y-14014650D01*
X19613039Y-14014650D02*
X19593991Y-13986079D01*
X19593991Y-13986079D02*
X19584468Y-13967031D01*
X19584468Y-13967031D02*
X19574944Y-13938460D01*
X19574944Y-13938460D02*
X19565420Y-13890841D01*
X19565420Y-13890841D02*
X19565420Y-13852746D01*
X19565420Y-13852746D02*
X19574944Y-13805127D01*
X19574944Y-13805127D02*
X19584468Y-13776555D01*
X19584468Y-13776555D02*
X19593991Y-13757508D01*
X19593991Y-13757508D02*
X19613039Y-13728936D01*
X19613039Y-13728936D02*
X19622563Y-13719412D01*
X19803515Y-13947984D02*
X19689230Y-13947984D01*
X19746372Y-13947984D02*
X19746372Y-13747984D01*
X19746372Y-13747984D02*
X19727325Y-13776555D01*
X19727325Y-13776555D02*
X19708277Y-13795603D01*
X19708277Y-13795603D02*
X19689230Y-13805127D01*
X19927325Y-13747984D02*
X19946372Y-13747984D01*
X19946372Y-13747984D02*
X19965420Y-13757508D01*
X19965420Y-13757508D02*
X19974944Y-13767031D01*
X19974944Y-13767031D02*
X19984468Y-13786079D01*
X19984468Y-13786079D02*
X19993991Y-13824174D01*
X19993991Y-13824174D02*
X19993991Y-13871793D01*
X19993991Y-13871793D02*
X19984468Y-13909888D01*
X19984468Y-13909888D02*
X19974944Y-13928936D01*
X19974944Y-13928936D02*
X19965420Y-13938460D01*
X19965420Y-13938460D02*
X19946372Y-13947984D01*
X19946372Y-13947984D02*
X19927325Y-13947984D01*
X19927325Y-13947984D02*
X19908277Y-13938460D01*
X19908277Y-13938460D02*
X19898753Y-13928936D01*
X19898753Y-13928936D02*
X19889230Y-13909888D01*
X19889230Y-13909888D02*
X19879706Y-13871793D01*
X19879706Y-13871793D02*
X19879706Y-13824174D01*
X19879706Y-13824174D02*
X19889230Y-13786079D01*
X19889230Y-13786079D02*
X19898753Y-13767031D01*
X19898753Y-13767031D02*
X19908277Y-13757508D01*
X19908277Y-13757508D02*
X19927325Y-13747984D01*
X20232087Y-13947984D02*
X20232087Y-13747984D01*
X20317801Y-13947984D02*
X20317801Y-13843222D01*
X20317801Y-13843222D02*
X20308277Y-13824174D01*
X20308277Y-13824174D02*
X20289230Y-13814650D01*
X20289230Y-13814650D02*
X20260658Y-13814650D01*
X20260658Y-13814650D02*
X20241611Y-13824174D01*
X20241611Y-13824174D02*
X20232087Y-13833698D01*
X20441611Y-13947984D02*
X20422563Y-13938460D01*
X20422563Y-13938460D02*
X20413039Y-13928936D01*
X20413039Y-13928936D02*
X20403515Y-13909888D01*
X20403515Y-13909888D02*
X20403515Y-13852746D01*
X20403515Y-13852746D02*
X20413039Y-13833698D01*
X20413039Y-13833698D02*
X20422563Y-13824174D01*
X20422563Y-13824174D02*
X20441611Y-13814650D01*
X20441611Y-13814650D02*
X20470182Y-13814650D01*
X20470182Y-13814650D02*
X20489230Y-13824174D01*
X20489230Y-13824174D02*
X20498753Y-13833698D01*
X20498753Y-13833698D02*
X20508277Y-13852746D01*
X20508277Y-13852746D02*
X20508277Y-13909888D01*
X20508277Y-13909888D02*
X20498753Y-13928936D01*
X20498753Y-13928936D02*
X20489230Y-13938460D01*
X20489230Y-13938460D02*
X20470182Y-13947984D01*
X20470182Y-13947984D02*
X20441611Y-13947984D01*
X20622563Y-13947984D02*
X20603515Y-13938460D01*
X20603515Y-13938460D02*
X20593992Y-13919412D01*
X20593992Y-13919412D02*
X20593992Y-13747984D01*
X20774944Y-13938460D02*
X20755896Y-13947984D01*
X20755896Y-13947984D02*
X20717801Y-13947984D01*
X20717801Y-13947984D02*
X20698753Y-13938460D01*
X20698753Y-13938460D02*
X20689230Y-13919412D01*
X20689230Y-13919412D02*
X20689230Y-13843222D01*
X20689230Y-13843222D02*
X20698753Y-13824174D01*
X20698753Y-13824174D02*
X20717801Y-13814650D01*
X20717801Y-13814650D02*
X20755896Y-13814650D01*
X20755896Y-13814650D02*
X20774944Y-13824174D01*
X20774944Y-13824174D02*
X20784468Y-13843222D01*
X20784468Y-13843222D02*
X20784468Y-13862269D01*
X20784468Y-13862269D02*
X20689230Y-13881317D01*
X20860658Y-13938460D02*
X20879706Y-13947984D01*
X20879706Y-13947984D02*
X20917801Y-13947984D01*
X20917801Y-13947984D02*
X20936849Y-13938460D01*
X20936849Y-13938460D02*
X20946373Y-13919412D01*
X20946373Y-13919412D02*
X20946373Y-13909888D01*
X20946373Y-13909888D02*
X20936849Y-13890841D01*
X20936849Y-13890841D02*
X20917801Y-13881317D01*
X20917801Y-13881317D02*
X20889230Y-13881317D01*
X20889230Y-13881317D02*
X20870182Y-13871793D01*
X20870182Y-13871793D02*
X20860658Y-13852746D01*
X20860658Y-13852746D02*
X20860658Y-13843222D01*
X20860658Y-13843222D02*
X20870182Y-13824174D01*
X20870182Y-13824174D02*
X20889230Y-13814650D01*
X20889230Y-13814650D02*
X20917801Y-13814650D01*
X20917801Y-13814650D02*
X20936849Y-13824174D01*
X21013039Y-14024174D02*
X21022563Y-14014650D01*
X21022563Y-14014650D02*
X21041611Y-13986079D01*
X21041611Y-13986079D02*
X21051134Y-13967031D01*
X21051134Y-13967031D02*
X21060658Y-13938460D01*
X21060658Y-13938460D02*
X21070182Y-13890841D01*
X21070182Y-13890841D02*
X21070182Y-13852746D01*
X21070182Y-13852746D02*
X21060658Y-13805127D01*
X21060658Y-13805127D02*
X21051134Y-13776555D01*
X21051134Y-13776555D02*
X21041611Y-13757508D01*
X21041611Y-13757508D02*
X21022563Y-13728936D01*
X21022563Y-13728936D02*
X21013039Y-13719412D01*
M02*
