%TF.GenerationSoftware,KiCad,Pcbnew,8.0.7*%
%TF.CreationDate,2025-01-02T13:50:35-06:00*%
%TF.ProjectId,fuckball,6675636b-6261-46c6-9c2e-6b696361645f,rev?*%
%TF.SameCoordinates,Original*%
%TF.FileFunction,Copper,L2,Bot*%
%TF.FilePolarity,Positive*%
%FSLAX46Y46*%
G04 Gerber Fmt 4.6, Leading zero omitted, Abs format (unit mm)*
G04 Created by KiCad (PCBNEW 8.0.7) date 2025-01-02 13:50:35*
%MOMM*%
%LPD*%
G01*
G04 APERTURE LIST*
G04 Aperture macros list*
%AMRoundRect*
0 Rectangle with rounded corners*
0 $1 Rounding radius*
0 $2 $3 $4 $5 $6 $7 $8 $9 X,Y pos of 4 corners*
0 Add a 4 corners polygon primitive as box body*
4,1,4,$2,$3,$4,$5,$6,$7,$8,$9,$2,$3,0*
0 Add four circle primitives for the rounded corners*
1,1,$1+$1,$2,$3*
1,1,$1+$1,$4,$5*
1,1,$1+$1,$6,$7*
1,1,$1+$1,$8,$9*
0 Add four rect primitives between the rounded corners*
20,1,$1+$1,$2,$3,$4,$5,0*
20,1,$1+$1,$4,$5,$6,$7,0*
20,1,$1+$1,$6,$7,$8,$9,0*
20,1,$1+$1,$8,$9,$2,$3,0*%
G04 Aperture macros list end*
%TA.AperFunction,WasherPad*%
%ADD10C,3.000000*%
%TD*%
%TA.AperFunction,ComponentPad*%
%ADD11C,1.800000*%
%TD*%
%TA.AperFunction,WasherPad*%
%ADD12C,2.000000*%
%TD*%
%TA.AperFunction,SMDPad,CuDef*%
%ADD13RoundRect,0.200000X1.075000X1.050000X-1.075000X1.050000X-1.075000X-1.050000X1.075000X-1.050000X0*%
%TD*%
%TA.AperFunction,ComponentPad*%
%ADD14O,2.500000X1.500000*%
%TD*%
%TA.AperFunction,ComponentPad*%
%ADD15O,1.500000X2.500000*%
%TD*%
%TA.AperFunction,Conductor*%
%ADD16C,0.200000*%
%TD*%
G04 APERTURE END LIST*
D10*
%TO.P,PMW3389,*%
%TO.N,*%
X195000000Y-87500000D03*
X195000000Y-115000000D03*
D11*
%TO.P,PMW3389,0,VDD*%
%TO.N,Net-(PMW3389-VDD)*%
X207000000Y-102500000D03*
%TO.P,PMW3389,1,VDD10*%
%TO.N,unconnected-(PMW3389-VDD10-Pad1)*%
X207000000Y-100000000D03*
%TO.P,PMW3389,2,GND*%
%TO.N,Net-(MX_Hotswap1-PadGND)*%
X209500000Y-102500000D03*
%TO.P,PMW3389,3,GND*%
X209500000Y-100000000D03*
%TO.P,PMW3389,4,MOT*%
%TO.N,unconnected-(PMW3389-MOT-Pad4)*%
X184500000Y-94241596D03*
%TO.P,PMW3389,5,SCLK*%
%TO.N,Net-(PMW3389-SCLK)*%
X184500000Y-97161064D03*
%TO.P,PMW3389,6,MOSI*%
%TO.N,Net-(PMW3389-MOSI)*%
X184500000Y-100080532D03*
%TO.P,PMW3389,7,MISO*%
%TO.N,Net-(PMW3389-MISO)*%
X184500000Y-103000000D03*
%TO.P,PMW3389,8,NCS*%
%TO.N,Net-(PMW3389-NCS)*%
X184500000Y-105919468D03*
%TO.P,PMW3389,9,NRESET*%
%TO.N,unconnected-(PMW3389-NRESET-Pad9)*%
X184500000Y-108838936D03*
%TD*%
D12*
%TO.P,Aball_Frame_34MM2,*%
%TO.N,*%
X189696699Y-121652543D03*
X180150758Y-86650758D03*
X215506097Y-95843146D03*
%TD*%
D13*
%TO.P,MX_Hotswap1,1,1*%
%TO.N,Net-(MX_Hotswap1-Pad1)*%
X191915000Y-49960000D03*
%TO.P,MX_Hotswap1,GND,GND*%
%TO.N,Net-(MX_Hotswap1-PadGND)*%
X204842000Y-47420000D03*
%TD*%
D14*
%TO.P,U1,0,0*%
%TO.N,unconnected-(U1-Pad0)*%
X168760000Y-39420000D03*
%TO.P,U1,1,1*%
%TO.N,unconnected-(U1-Pad1)*%
X168760000Y-41960000D03*
%TO.P,U1,2,2*%
%TO.N,unconnected-(U1-Pad2)*%
X168760000Y-44500000D03*
%TO.P,U1,3,3*%
%TO.N,unconnected-(U1-Pad3)*%
X168760000Y-47040000D03*
%TO.P,U1,3V3,3V3*%
%TO.N,unconnected-(U1-Pad3V3)*%
X185000000Y-44500000D03*
%TO.P,U1,4,4*%
%TO.N,Net-(PMW3389-MISO)*%
X168760000Y-49580000D03*
%TO.P,U1,5,5*%
%TO.N,unconnected-(U1-Pad5)*%
X168760000Y-52120000D03*
%TO.P,U1,5V,5V*%
%TO.N,Net-(PMW3389-VDD)*%
X185000000Y-39420000D03*
%TO.P,U1,6,6*%
%TO.N,unconnected-(U1-Pad6)*%
X168760000Y-54660000D03*
%TO.P,U1,7,7*%
%TO.N,Net-(PMW3389-MOSI)*%
X168760000Y-57200000D03*
%TO.P,U1,8,8*%
%TO.N,unconnected-(U1-Pad8)*%
X168760000Y-59740000D03*
D15*
%TO.P,U1,9,9*%
%TO.N,unconnected-(U1-Pad9)*%
X171800000Y-60240000D03*
%TO.P,U1,10,10*%
%TO.N,Net-(PMW3389-SCLK)*%
X174340000Y-60240000D03*
%TO.P,U1,11,11*%
%TO.N,unconnected-(U1-Pad11)*%
X176880000Y-60240000D03*
%TO.P,U1,12,12*%
%TO.N,unconnected-(U1-Pad12)*%
X179420000Y-60240000D03*
%TO.P,U1,13,13*%
%TO.N,Net-(PMW3389-NCS)*%
X181960000Y-60240000D03*
D14*
%TO.P,U1,14,14*%
%TO.N,unconnected-(U1-Pad14)*%
X185000000Y-59740000D03*
%TO.P,U1,15,15*%
%TO.N,unconnected-(U1-Pad15)*%
X185000000Y-57200000D03*
%TO.P,U1,26,26*%
%TO.N,unconnected-(U1-Pad26)*%
X185000000Y-54660000D03*
%TO.P,U1,27,27*%
%TO.N,unconnected-(U1-Pad27)*%
X185000000Y-52120000D03*
%TO.P,U1,28,28*%
%TO.N,unconnected-(U1-Pad28)*%
X185000000Y-49580000D03*
%TO.P,U1,29,29*%
%TO.N,Net-(MX_Hotswap1-Pad1)*%
X185000000Y-47040000D03*
%TO.P,U1,GND,GND*%
%TO.N,Net-(MX_Hotswap1-PadGND)*%
X185000000Y-41960000D03*
%TD*%
D16*
%TO.N,Net-(MX_Hotswap1-Pad1)*%
X187420000Y-49960000D02*
X184500000Y-47040000D01*
X191915000Y-49960000D02*
X187420000Y-49960000D01*
%TO.N,Net-(MX_Hotswap1-PadGND)*%
X204842000Y-47420000D02*
X204156295Y-47420000D01*
X204156295Y-47420000D02*
X198696295Y-41960000D01*
X198696295Y-41960000D02*
X184500000Y-41960000D01*
%TD*%
M02*
