M48
; DRILL file {KiCad 8.0.7} date 2025-01-02T13:51:46-0600
; FORMAT={-:-/ absolute / inch / decimal}
; #@! TF.CreationDate,2025-01-02T13:51:46-06:00
; #@! TF.GenerationSoftware,Kicad,Pcbnew,8.0.7
; #@! TF.FileFunction,Plated,1,2,PTH
FMAT,2
INCH
; #@! TA.AperFunction,Plated,PTH,ComponentDrill
T1C0.0394
; #@! TA.AperFunction,Plated,PTH,ComponentDrill
T2C0.0472
%
G90
G05
T1
X6.6638Y-1.552
X6.6638Y-1.652
X6.6638Y-1.752
X6.6638Y-1.852
X6.6638Y-1.952
X6.6638Y-2.052
X6.6638Y-2.152
X6.6638Y-2.252
X6.6638Y-2.352
X6.7638Y-2.352
X6.8638Y-2.352
X6.9638Y-2.352
X7.0638Y-2.352
X7.1638Y-2.352
X7.2638Y-1.552
X7.2638Y-1.652
X7.2638Y-1.752
X7.2638Y-1.852
X7.2638Y-1.952
X7.2638Y-2.052
X7.2638Y-2.152
X7.2638Y-2.252
X7.2638Y-2.352
T2
X7.2638Y-3.7103
X7.2638Y-3.8252
X7.2638Y-3.9402
X7.2638Y-4.0551
X7.2638Y-4.1701
X7.2638Y-4.285
X8.1496Y-3.937
X8.1496Y-4.0354
X8.248Y-3.937
X8.248Y-4.0354
M30
